<svg xmlns="http://www.w3.org/2000/svg" viewBox="0 0 2319.14 820"><defs><style>.cls-1{font-size:500px;font-family:SourceHanSansCN-Bold-GBpc-EUC-H, Source Han Sans CN;font-weight:700;}.cls-1,.cls-2{fill:#253858;}.cls-2{font-size:200px;stroke:#253858;stroke-miterlimit:10;stroke-width:18px;font-family:Roundo-Medium, Roundo;letter-spacing:0.08em;}.cls-3{fill:#1987ff;}.cls-4{fill:#fff;}</style></defs><title>edulogo</title><g id="layer_7" data-name="layer 7"><text class="cls-1" transform="translate(819.14 708.89)">微公学</text></g><g id="layer_5" data-name="layer 5"><text class="cls-2" transform="translate(819.14 177.8)">CLAZZ</text></g><g id="layer_2" data-name="layer 2"><path class="cls-3" d="M450.67,763.21c136.33,0,246.85-110.52,246.85-246.86S587,269.5,450.67,269.5H286.1C149.77,269.5,39.25,380,39.25,516.36c0,110.08,66,202.33,165.56,234.16l0,96.29L342.4,762.69Z" transform="translate(-39.25 -40.43)"/><path class="cls-4" d="M263.26,542.3H165.72q2,12.19,11.76,18t29.75,5.81q26.41,0,54.57-13.06V593.1q-8.13,7-25,11.76a127.77,127.77,0,0,1-35.12,4.79q-25.25,0-44.12-9.43a67.68,67.68,0,0,1-29.17-27.43q-10.31-18-10.31-43,0-23.8,9.43-41.8a68.1,68.1,0,0,1,26.85-28q17.42-10,40.35-10,32.51,0,50.51,19t18,52.11Zm-45.57-29q0-11-6.24-17.71t-19.59-6.68q-12.48,0-19,6.82t-7.4,17.56Z" transform="translate(-39.25 -40.43)"/><path class="cls-4" d="M434.52,401.22V606.74H391v-9q-16.26,11.91-40.64,11.9A70.94,70.94,0,0,1,318,601.8q-15.53-7.84-25.69-25T282.12,533.3q0-28.15,12.77-47a75.14,75.14,0,0,1,32.95-27.58A106.88,106.88,0,0,1,370.66,450a158.67,158.67,0,0,1,17.42.87V407ZM339.74,558.7q9.43,9.44,25.4,9.43a63.43,63.43,0,0,0,22.93-4.35V492.95a75.43,75.43,0,0,0-14.8-1.45q-18.58,0-30.77,8.71t-12.19,29.61Q330.31,549.27,339.74,558.7Z" transform="translate(-39.25 -40.43)"/><path class="cls-4" d="M613.62,452.89V606.74H570.08V588.45a82.46,82.46,0,0,1-24.67,15.24,81.14,81.14,0,0,1-31.06,6q-27,0-39.33-15.53t-12.34-42.53v-98.7h46.45V539.1q0,25.55,26.42,25.54a82.29,82.29,0,0,0,31.64-6.1V452.89Z" transform="translate(-39.25 -40.43)"/></g></svg>