<svg xmlns="http://www.w3.org/2000/svg" xmlns:xlink="http://www.w3.org/1999/xlink" viewBox="0 0 686.01 197.72"><defs><style>.cls-1,.cls-29{fill:none;}.cls-2{fill:#f1f0f5;}.cls-3{fill:#a2aaad;}.cls-4{fill:#71877f;}.cls-5{fill:#ced5d7;}.cls-6{fill:#d4f86e;}.cls-7{fill:#27aae1;}.cls-8{fill:#009444;}.cls-9{fill:#39b54a;}.cls-10{fill:#9b6e4a;}.cls-11{fill:#865833;}.cls-12{fill:#8bab45;}.cls-13{fill:#b0cf52;}.cls-14{fill:#563017;}.cls-15{fill:#773d20;}.cls-16{fill:#92fff9;}.cls-17{opacity:0.8;}.cls-18{clip-path:url(#clip-path);}.cls-19{fill:#f1a84c;}.cls-20{fill:#facb59;}.cls-21{fill:#3d3d39;}.cls-22{fill:#773f19;}.cls-23{fill:#e27d39;}.cls-24{fill:#f4caab;}.cls-25{fill:#ce656b;}.cls-26{fill:#575756;}.cls-27{fill:#e8b592;}.cls-28{fill:#7e4e24;}.cls-29{stroke:#773f19;stroke-linecap:round;stroke-linejoin:round;stroke-width:4px;}.cls-30{fill:#dbcecf;}</style><clipPath id="clip-path"><rect class="cls-1" x="89.82" y="2.67" width="72.34" height="40.84"/></clipPath></defs><title>资源 5a2</title><g id="图层_2" data-name="图层 2"><g id="图层_8" data-name="图层 8"><path class="cls-2" d="M675,62.13a10.49,10.49,0,0,0-3,.44,23.67,23.67,0,0,0-45.46-11.91A16.58,16.58,0,0,0,605,66.13a8.81,8.81,0,1,0-3.32,17H675a10.48,10.48,0,0,0,0-21"/></g><g id="图层_3" data-name="图层 3"><path class="cls-3" d="M599.89,64.1,580.69,58a13.42,13.42,0,0,0-12.58,2.44l-.26.22a13.38,13.38,0,0,1-8.49,3.06v99.84H681Z"/><path class="cls-4" d="M550.62,60.55a13.42,13.42,0,0,0-12.54-2.63l-19.27,5.76-81.45,99.9h122V63.74a13.4,13.4,0,0,1-8.73-3.19"/><path class="cls-2" d="M567.85,60.68l.26-.22A13.42,13.42,0,0,1,580.69,58l19.2,6.07L559.35,14.38V63.74a13.39,13.39,0,0,0,8.49-3.06"/><path class="cls-5" d="M550.62,60.55a13.4,13.4,0,0,0,8.73,3.19V14.38l-.17-.21-40.35,49.5h0l19.27-5.76a13.42,13.42,0,0,1,12.54,2.63"/></g><g id="图层_6" data-name="图层 6"><rect class="cls-6" y="163.58" width="685.47" height="34.14"/><path class="cls-7" d="M284.18,174.07h0a3.56,3.56,0,0,0-3.56-3.56H273a3.56,3.56,0,0,1-3.56-3.56h0a3.56,3.56,0,0,1,3.56-3.56H392.2a3.56,3.56,0,0,1,3.56,3.56h0a3.56,3.56,0,0,1-3.56,3.56h-8a3.56,3.56,0,1,0,0,7.12H417a3.56,3.56,0,0,1,0,7.12H372a3.56,3.56,0,0,0-3.56,3.56,3.56,3.56,0,0,1-3.56,3.56H300.36a3.56,3.56,0,0,1-3.56-3.56,3.56,3.56,0,0,0-3.56-3.56H264.07a3.56,3.56,0,0,1,0-7.12h16.54a3.56,3.56,0,0,0,3.56-3.56"/><polygon class="cls-8" points="26.68 80.26 0 163.3 19.05 163.3 26.68 163.3 26.68 80.26"/><polygon class="cls-9" points="26.68 80.26 26.68 163.3 34.31 163.3 53.37 163.3 26.68 80.26"/><rect class="cls-10" x="26.68" y="163.3" width="7.63" height="21.77"/><rect class="cls-11" x="19.05" y="163.3" width="7.63" height="21.77"/><polygon class="cls-8" points="148.32 80.26 121.64 163.3 140.69 163.3 148.32 163.3 148.32 80.26"/><polygon class="cls-9" points="148.32 80.26 148.32 163.3 155.95 163.3 175 163.3 148.32 80.26"/><rect class="cls-10" x="148.32" y="163.3" width="7.63" height="21.77"/><rect class="cls-11" x="140.69" y="163.3" width="7.63" height="21.77"/><path class="cls-12" d="M79.74,94.53a18.18,18.18,0,0,0,.27,3h-.27a18.32,18.32,0,0,0-13.95,30.2,21.1,21.1,0,0,0,9.94,39.71H97.82v-91A18.08,18.08,0,0,0,79.74,94.53"/><path class="cls-13" d="M129.85,127.75a18.32,18.32,0,0,0-14-30.2h-.27A18,18,0,0,0,97.82,76.45v91h22.09a21.1,21.1,0,0,0,9.94-39.71"/><rect class="cls-10" x="97.82" y="167.46" width="6.17" height="17.62"/><rect class="cls-11" x="91.65" y="167.46" width="6.17" height="17.62"/><polygon class="cls-8" points="64.03 107.88 42.8 173.97 57.96 173.97 64.03 173.97 64.03 107.88"/><polygon class="cls-9" points="64.03 107.88 64.03 173.97 70.1 173.97 85.27 173.97 64.03 107.88"/><rect class="cls-10" x="64.03" y="173.96" width="6.07" height="17.33"/><rect class="cls-11" x="57.96" y="173.96" width="6.07" height="17.33"/><polygon class="cls-8" points="629.19 80.26 602.51 163.3 621.56 163.3 629.19 163.3 629.19 80.26"/><polygon class="cls-9" points="629.19 80.26 629.19 163.3 636.82 163.3 655.88 163.3 629.19 80.26"/><rect class="cls-10" x="629.19" y="163.3" width="7.63" height="21.77"/><rect class="cls-11" x="621.56" y="163.3" width="7.63" height="21.77"/><polygon class="cls-8" points="664.59 107.15 643.17 173.81 658.47 173.81 664.59 173.81 664.59 107.15"/><polygon class="cls-9" points="664.59 107.15 664.59 173.81 670.72 173.81 686.01 173.81 664.59 107.15"/><rect class="cls-10" x="664.59" y="173.81" width="6.12" height="17.48"/><rect class="cls-11" x="658.47" y="173.81" width="6.12" height="17.48"/><path class="cls-12" d="M572.52,110.47a15,15,0,0,0,.22,2.49h-.22A15.09,15.09,0,0,0,561,137.84a17.38,17.38,0,0,0,8.19,32.72h18.2v-75a14.9,14.9,0,0,0-14.9,14.9"/><path class="cls-13" d="M613.81,137.84A15.09,15.09,0,0,0,602.31,113h-.23a14.82,14.82,0,0,0-14.67-17.39v75h18.2a17.38,17.38,0,0,0,8.19-32.72"/><rect class="cls-10" x="587.41" y="170.56" width="5.09" height="14.52"/><rect class="cls-11" x="582.33" y="170.56" width="5.09" height="14.52"/><polygon class="cls-8" points="548.79 107.88 527.55 173.97 542.72 173.97 548.79 173.97 548.79 107.88"/><polygon class="cls-9" points="548.79 107.88 548.79 173.97 554.86 173.97 570.02 173.97 548.79 107.88"/><rect class="cls-10" x="548.79" y="173.96" width="6.07" height="17.33"/><rect class="cls-11" x="542.72" y="173.96" width="6.07" height="17.33"/><path class="cls-12" d="M182.35,116.68a14.93,14.93,0,0,0,.23,2.49h-.23a15.09,15.09,0,0,0-11.5,24.89A17.38,17.38,0,0,0,179,176.77h18.2v-75a14.9,14.9,0,0,0-14.9,14.9"/><path class="cls-13" d="M223.64,144.05a15.09,15.09,0,0,0-11.5-24.89h-.23a14.82,14.82,0,0,0-14.67-17.39v75h18.2a17.38,17.38,0,0,0,8.19-32.72"/><rect class="cls-10" x="197.25" y="176.77" width="5.09" height="14.52"/><rect class="cls-11" x="192.16" y="176.77" width="5.09" height="14.52"/><polygon class="cls-14" points="439.05 147.11 468.77 147.11 455.58 135.54 453.91 134.07 439.05 147.11"/><polygon class="cls-11" points="442.99 145.81 442.99 146.29 468.77 146.29 455.58 135.44 444.65 144.44 442.99 145.81"/><rect class="cls-10" x="465.51" y="144.44" width="41.66" height="32.48"/><polygon class="cls-11" points="442.99 145.81 442.99 176.92 466.1 176.92 466.1 144.44 444.65 144.44 442.99 145.81"/><polygon class="cls-14" points="512.57 146.29 512.57 147.11 467.68 147.11 453.32 134.56 453.91 134.07 512.57 146.29"/><polygon class="cls-14" points="497.71 134.07 512.57 146.29 468.18 146.29 453.91 134.07 497.71 134.07"/><polygon class="cls-14" points="444.14 180.69 487.44 185.77 487.68 184.18 444.39 179.1 444.14 180.69"/><polygon class="cls-14" points="487.68 180.69 444.39 185.77 444.14 184.18 487.44 179.1 487.68 180.69"/><rect class="cls-14" x="485.85" y="177.6" width="3.17" height="9.14"/><rect class="cls-14" x="442.56" y="178.22" width="3.17" height="8.52"/><path class="cls-15" d="M442,179.55h66.16a1,1,0,0,0,1-1v-.69a1,1,0,0,0-1-1H442a1,1,0,0,0-1,1v.69a1,1,0,0,0,1,1"/><rect class="cls-15" x="502.47" y="178.85" width="3.17" height="7.9"/><rect class="cls-15" x="464.51" y="178.85" width="3.17" height="7.9"/><rect class="cls-14" x="448.42" y="156.83" width="12.25" height="20.09"/><rect class="cls-14" x="446.39" y="156.12" width="16.29" height="1.41"/><rect class="cls-16" x="477.14" y="158.32" width="18.4" height="10.83"/><path class="cls-15" d="M476.63,158.32H496a.75.75,0,1,0,0-1.5H476.63a.75.75,0,1,0,0,1.5"/><path class="cls-15" d="M476.63,170.28H496a.75.75,0,1,0,0-1.5H476.63a.75.75,0,1,0,0,1.5"/><rect class="cls-15" x="486.05" y="157.97" width="0.57" height="11.56"/><rect class="cls-15" x="476.85" y="163.47" width="18.97" height="0.57"/><rect class="cls-15" x="495.54" y="157.97" width="0.57" height="11.56"/><rect class="cls-15" x="476.57" y="157.97" width="0.57" height="11.56"/><polygon class="cls-14" points="453.91 135.07 439.05 147.11 439.05 146.29 453.91 134.07 453.91 135.07"/><rect class="cls-15" x="484.09" y="163.81" width="1.6" height="37.96" transform="translate(238.84 638.85) rotate(-82.31)"/><rect class="cls-15" x="465.91" y="181.99" width="37.96" height="1.6" transform="translate(-20.1 66.55) rotate(-7.69)"/><path class="cls-10" d="M448.19,179.55h12.69a.79.79,0,0,0,.79-.79V177.7a.79.79,0,0,0-.79-.79H448.19a.79.79,0,0,0-.79.79v1.06a.79.79,0,0,0,.79.79"/><path class="cls-11" d="M446.52,182.17h12.69a.79.79,0,0,0,.79-.79v-1.06a.79.79,0,0,0-.79-.79H446.52a.79.79,0,0,0-.79.79v1.06a.79.79,0,0,0,.79.79"/><path class="cls-10" d="M444.84,184.79h12.69a.79.79,0,0,0,.79-.79v-1.06a.79.79,0,0,0-.79-.79H444.84a.79.79,0,0,0-.79.79V184a.79.79,0,0,0,.79.79"/><path class="cls-11" d="M443.17,187.41h12.69a.79.79,0,0,0,.79-.79v-1.06a.79.79,0,0,0-.79-.79H443.17a.79.79,0,0,0-.79.79v1.06a.79.79,0,0,0,.79.79"/><path class="cls-10" d="M441.49,190h12.69a.79.79,0,0,0,.79-.79v-1.06a.79.79,0,0,0-.79-.79H441.49a.79.79,0,0,0-.79.79v1.06a.79.79,0,0,0,.79.79"/><rect class="cls-10" x="490.73" y="130.66" width="9.06" height="10.06"/><rect class="cls-14" x="488.83" y="127.83" width="12.84" height="2.83"/></g><g id="图层_2-2" data-name="图层 2"><g class="cls-17"><g class="cls-18"><path class="cls-2" d="M152.3,23.79a9.82,9.82,0,0,0-4.62,1.15c.06-.61.09-1.22.09-1.84A20.42,20.42,0,0,0,107,21.68a11.62,11.62,0,1,0-5.53,21.83H152.3a9.86,9.86,0,0,0,0-19.73"/></g></g></g><g id="图层_7" data-name="图层 7"><path class="cls-19" d="M3.4,39a39,39,0,0,0,39,39V0a39,39,0,0,0-39,39"/><path class="cls-20" d="M41.35,0V77.91A39,39,0,0,0,41.35,0"/></g><g id="图层_5" data-name="图层 5"><rect class="cls-21" x="114.28" y="167.71" width="24.77" height="27.59" rx="2.41" ry="2.41"/><path class="cls-22" d="M142.12,197.57V177.41a2.33,2.33,0,0,0-2.33-2.33H114.37a2.33,2.33,0,0,0-2.33,2.33v20.16Z"/><rect class="cls-23" x="120.27" y="175.09" width="13.14" height="22.48"/><rect class="cls-24" x="118.29" y="151.35" width="16.76" height="20.23" rx="2.33" ry="2.33"/><path class="cls-24" d="M129.48,176.23c0,1.28-5.85,1.28-5.85,0v-7.6a2.33,2.33,0,0,1,2.33-2.33h1.19a2.33,2.33,0,0,1,2.33,2.33Z"/><rect class="cls-25" x="118.16" y="151.35" width="24.39" height="3.17"/><path class="cls-25" d="M118.29,151.35c0-3,3.75-5.5,8.38-5.5s8.38,2.46,8.38,5.5Z"/><rect class="cls-26" x="118.16" y="152.23" width="3.39" height="1.32"/><ellipse class="cls-26" cx="125.24" cy="158.76" rx="0.65" ry="0.9"/><ellipse class="cls-26" cx="131" cy="158.76" rx="0.65" ry="0.9"/><path class="cls-26" d="M131,164.92a3.39,3.39,0,0,1-6.67,0Z"/><path class="cls-25" d="M127.67,167.71a3.66,3.66,0,0,0,2.39-.85,3.76,3.76,0,0,0-2-.55,3.66,3.66,0,0,0-2.39.85A3.76,3.76,0,0,0,127.67,167.71Z"/><ellipse class="cls-27" cx="130.34" cy="161.68" rx="2.55" ry="1.41"/><ellipse class="cls-24" cx="118.16" cy="161.95" rx="1.86" ry="3.13" transform="translate(-54.92 60.78) rotate(-23.58)"/><polygon class="cls-28" points="118.29 159.28 124.34 154.52 118.29 154.52 118.29 159.28"/><polyline class="cls-29" points="114.28 177.64 102.24 190.57 116.97 185.99"/><path class="cls-24" d="M116.64,184.54a1,1,0,0,1-1.38.55h0a1,1,0,0,1-.55-1.38l.74-1.71a1,1,0,0,1,1.38-.55h0a1,1,0,0,1,.55,1.38Z"/><rect class="cls-26" x="116.04" y="175.09" width="4.23" height="22.48"/><rect class="cls-30" x="114.9" y="188.09" width="6.51" height="8.06" rx="2.33" ry="2.33"/><rect class="cls-26" x="116" y="189.44" width="4.32" height="5.35" rx="1.54" ry="1.54"/><path class="cls-24" d="M122.7,183.72a2.71,2.71,0,0,1-1.7,3.44l-3.46,1.17a2.71,2.71,0,0,1-3.44-1.7h0a2.71,2.71,0,0,1,1.7-3.44l3.46-1.17a2.71,2.71,0,0,1,3.44,1.7Z"/><polyline class="cls-29" points="139.84 177.64 146.28 194.79 148.29 184.44"/><path class="cls-24" d="M150.36,178.61a2.71,2.71,0,0,1,1.73,3.43l-.52,1.92a2.71,2.71,0,0,1-3.43,1.73h0a2.71,2.71,0,0,1-1.73-3.43l.52-1.92a2.71,2.71,0,0,1,3.43-1.73Z"/><rect class="cls-26" x="133.41" y="175.09" width="4.23" height="22.48"/><rect class="cls-30" x="132.27" y="188.09" width="6.51" height="8.06" rx="2.33" ry="2.33"/><rect class="cls-26" x="133.36" y="189.44" width="4.32" height="5.35" rx="1.54" ry="1.54"/><path class="cls-24" d="M149.22,180.48a.93.93,0,0,1-.93.93h0a.93.93,0,0,1-.93-.93v-4a.93.93,0,0,1,.93-.93h0a.93.93,0,0,1,.93.93Z"/><path class="cls-24" d="M150.73,180.68a.93.93,0,0,1-1.22.48h0a.93.93,0,0,1-.48-1.22l1.61-3.69a.93.93,0,0,1,1.22-.48h0a.93.93,0,0,1,.48,1.22Z"/></g></g></svg>