<?xml version="1.0" standalone="no"?><!DOCTYPE svg PUBLIC "-//W3C//DTD SVG 1.1//EN" "http://www.w3.org/Graphics/SVG/1.1/DTD/svg11.dtd"><svg t="1513929054553" class="icon" style="" viewBox="0 0 1024 1024" version="1.1" xmlns="http://www.w3.org/2000/svg" p-id="1531" xmlns:xlink="http://www.w3.org/1999/xlink" width="48" height="48"><defs><style type="text/css"></style></defs><path d="M249.036283 47.838384h525.926141c45.037899 0 85.977212 18.415192 115.629253 48.07499 29.658505 29.653333 48.076283 70.592646 48.076283 115.627959v603.509657c0 45.035313-18.415192 85.969455-48.076283 115.621495C860.933172 960.33099 820.000323 978.747475 774.962424 978.747475H249.036283c-45.035313 0-85.968162-18.416485-115.62796-48.076283C103.751111 901.020444 85.33204 860.086303 85.33204 815.05099V211.541333c0-45.035313 18.419071-85.973333 48.077576-115.627959C163.069414 66.253576 204.002263 47.838384 249.036283 47.838384z" fill="#ffffff" p-id="1532" data-spm-anchor-id="a313x.7781069.0.i21" class=""></path><path d="M760.291556 113.777778H261.999192c-32.527515 0-62.117495 13.190465-83.572364 34.430707-21.453576 21.235071-34.777212 50.535434-34.777212 82.735838v566.089697c0 32.204283 13.324929 61.496889 34.777212 82.730667 21.452283 21.241535 51.044848 34.432 83.572364 34.432h498.292364c32.528808 0 62.121374-13.190465 83.573656-34.432 21.454869-21.236364 34.777212-50.526384 34.777212-82.730667V230.944323c0-32.201697-13.323636-61.500768-34.777212-82.735838C822.415515 126.968242 792.819071 113.777778 760.291556 113.777778z" fill="#1987ff" p-id="1533" data-spm-anchor-id="a313x.7781069.0.i15" class=""></path><path d="M280.482909 199.853253H491.777293c15.897859 0 30.385131 6.538343 40.910869 17.053737l0.038787-0.038788c10.494707 10.494707 17.013657 24.997495 17.013657 40.956121v143.313455c0 15.958626-6.520242 30.461414-17.013657 40.953535l-0.038787-0.037495c-10.52703 10.516687-25.01301 17.052444-40.910869 17.052445H280.482909c-15.962505 0-30.466586-6.520242-40.961293-17.013657l0.038788-0.037495c-10.516687-10.52703-17.053737-25.024646-17.053737-40.917333V257.824323c0-15.899152 6.537051-30.390303 17.053737-40.918626l-0.038788-0.037495c10.494707-10.494707 24.997495-17.014949 40.961293-17.014949z" fill="#ffffff" p-id="1534" data-spm-anchor-id="a313x.7781069.0.i23" class=""></path><path d="M470.350869 258.585859H296.36396c-4.332606 0-8.283798 1.674343-11.14893 4.366222h-0.059474c-2.828929 2.653091-4.591192 6.363798-4.591192 10.467555v110.831192c0 4.101172 1.76097 7.811879 4.591192 10.467556h0.059474c2.865131 2.691879 6.816323 4.366222 11.14893 4.366222h173.986909c4.363636 0 8.316121-1.652364 11.139878-4.310626v-0.055596c2.867717-2.691879 4.649374-6.402586 4.649374-10.467556v-110.831192c0-4.06497-1.781657-7.775677-4.649374-10.467555v-0.054303c-2.825051-2.658263-6.777535-4.311919-11.139878-4.311919z" fill="#1987ff" p-id="1535" data-spm-anchor-id="a313x.7781069.0.i20" class="selected"></path><path d="M614.162101 202.135273h170.664081c10.66796 0 19.393939 12.69398 19.393939 28.225939 0 15.528081-8.72598 28.224646-19.393939 28.224647H614.162101c-10.669253 0-19.393939-12.696566-19.393939-28.224647-0.001293-15.528081 8.723394-28.225939 19.393939-28.225939zM614.162101 303.191919h170.664081c10.66796 0 19.393939 12.357818 19.393939 27.473455 0 15.115636-8.72598 27.47604-19.393939 27.47604H614.162101c-10.669253 0-19.393939-12.360404-19.393939-27.47604-0.001293-15.114343 8.723394-27.473455 19.393939-27.473455zM615.023192 402.10101h170.664081c10.66796 0 19.393939 12.757333 19.393939 28.357818 0 15.601778-8.72598 28.361697-19.393939 28.361697H615.023192c-10.669253 0-19.393939-12.757333-19.393939-28.361697-0.001293-15.600485 8.723394-28.357818 19.393939-28.357818zM239.17899 528.377535H784.832646c10.658909 0 19.388768 12.214303 19.388768 27.14893 0 14.937212-8.729859 27.154101-19.388768 27.154101H239.17899c-10.660202 0-19.390061-12.214303-19.390061-27.154101 0.001293-14.934626 8.731152-27.148929 19.390061-27.14893zM239.17899 648.189414H784.832646c10.658909 0 19.388768 12.406949 19.388768 27.580768 0 15.175111-8.729859 27.583354-19.388768 27.583353H239.17899c-10.660202 0-19.390061-12.408242-19.390061-27.583353 0.001293-15.173818 8.731152-27.580768 19.390061-27.580768zM239.17899 770.585859H784.832646c10.658909 0 19.388768 12.109576 19.388768 26.927838 0 14.813091-8.729859 26.930424-19.388768 26.930424H239.17899c-10.660202 0-19.390061-12.117333-19.390061-26.930424C219.790222 782.699313 228.520081 770.585859 239.17899 770.585859z" fill="#ffffff" p-id="1536" data-spm-anchor-id="a313x.7781069.0.i22" class=""></path></svg>